<svg width="1602" height="858" viewBox="0 0 1602 858" fill="none" xmlns="http://www.w3.org/2000/svg">
<path fill-rule="evenodd" clip-rule="evenodd" d="M1146.8 10.6275C979.994 -32.6019 800.457 64.8245 745.788 228.235L696.322 376.095C691.479 390.572 687.779 405.081 685.172 419.533C683.481 428.907 673.894 434.89 664.674 432.5L616.43 419.997C498.596 389.459 371.765 458.284 333.146 573.722C294.526 689.16 358.742 807.498 476.576 838.037L524.82 850.54C604.223 871.118 687.71 846.578 745.54 793.06C784.879 756.653 847.472 736.803 899.359 750.25L1135.64 811.487C1302.44 854.716 1481.98 757.29 1536.65 593.879L1586.12 446.019C1640.78 282.609 1549.88 115.094 1383.08 71.8643L1146.8 10.6275Z" fill="#FEBC0A" fill-opacity="0.7"/>
<path fill-rule="evenodd" clip-rule="evenodd" d="M448.631 352.056C444.434 347.733 444.049 340.795 448.163 336.505C520.854 260.715 541.607 170.792 491.983 119.682C433.14 59.0769 297.625 75.996 189.301 157.472C80.9768 238.948 40.8642 354.128 99.707 414.733C103.904 419.056 104.289 425.994 100.175 430.284C27.484 506.074 6.7309 595.997 56.3544 647.107C115.197 707.712 250.713 690.793 359.037 609.317C467.361 527.841 507.473 412.661 448.631 352.056Z" fill="#FEBC0A" fill-opacity="0.7"/>
</svg>
