<svg width="64" height="64" viewBox="0 0 64 64" fill="none" xmlns="http://www.w3.org/2000/svg">
<g id="mouse">
<path id="Vector" d="M32 60.6667C19.8667 60.6667 10 50.8 10 38.6667V25.3334C10 13.2 19.8667 3.33337 32 3.33337C44.1333 3.33337 54 13.2 54 25.3334V38.6667C54 50.8 44.1333 60.6667 32 60.6667ZM32 7.33337C22.08 7.33337 14 15.4134 14 25.3334V38.6667C14 48.5867 22.08 56.6667 32 56.6667C41.92 56.6667 50 48.5867 50 38.6667V25.3334C50 15.4134 41.92 7.33337 32 7.33337Z" fill="#101010"/>
<path id="Vector_2" d="M32 31.3333C28.6933 31.3333 26 28.64 26 25.3333V20C26 16.6933 28.6933 14 32 14C35.3067 14 38 16.6933 38 20V25.3333C38 28.64 35.3067 31.3333 32 31.3333ZM32 18C30.9067 18 30 18.9067 30 20V25.3333C30 26.4267 30.9067 27.3333 32 27.3333C33.0933 27.3333 34 26.4267 34 25.3333V20C34 18.9067 33.0933 18 32 18Z" fill="#101010"/>
<path id="Vector_3" d="M32 18C30.9067 18 30 17.0934 30 16V5.33337C30 4.24004 30.9067 3.33337 32 3.33337C33.0933 3.33337 34 4.24004 34 5.33337V16C34 17.0934 33.0933 18 32 18Z" fill="#101010"/>
</g>
</svg>
