<svg width="186" height="64" viewBox="0 0 186 64" fill="none" xmlns="http://www.w3.org/2000/svg">
<path d="M167.732 26.0486C169.967 26.0486 171.778 24.2386 171.778 22.0059C171.778 19.7732 169.967 17.9633 167.732 17.9633C165.497 17.9633 163.686 19.7732 163.686 22.0059C163.686 24.2386 165.497 26.0486 167.732 26.0486Z" fill="#101010"/>
<path d="M109.938 39.2446C111.923 39.2446 113.068 37.7572 112.992 36.3079C112.954 35.5452 112.877 35.0494 112.801 34.668C111.58 29.4049 107.304 25.5148 102.227 25.5148C96.1959 25.5148 91.3097 30.9686 91.3097 37.6809C91.3097 44.3933 96.1959 49.8471 102.227 49.8471C106.006 49.8471 108.717 48.4741 110.663 46.3002C111.618 45.2323 111.427 43.5924 110.282 42.7915C109.327 42.1431 108.144 42.372 107.266 43.0966C106.426 43.8212 104.823 45.2705 102.227 45.2705C99.1734 45.2705 96.5776 42.6389 96.005 39.1683H109.938V39.2446ZM102.189 30.1295C104.937 30.1295 107.304 32.2653 108.182 35.2019H96.1959C97.0738 32.2271 99.4406 30.1295 102.189 30.1295Z" fill="#101010"/>
<path d="M91.5387 27.9172C91.5387 26.7731 90.6989 25.8578 89.6301 25.6671C86.309 25.1713 83.1788 26.3917 81.3847 28.6419V28.3368C81.3847 26.9257 80.2395 26.0485 79.0943 26.0485C77.8346 26.0485 76.804 27.0782 76.804 28.3368V47.0246C76.804 48.245 77.7201 49.3129 78.9416 49.3892C80.2777 49.4655 81.3847 48.4357 81.3847 47.1009V37.4519C81.3847 33.1804 84.5912 29.6716 89.0193 30.1674C89.172 30.1674 89.3247 30.1674 89.4774 30.1674C90.6226 30.0911 91.5387 29.0995 91.5387 27.9172Z" fill="#101010"/>
<path d="M170.023 30.3584C170.023 29.0998 168.992 28.0701 167.732 28.0701C166.473 28.0701 165.442 29.0998 165.442 30.3584C165.442 30.4347 165.442 46.3765 165.442 47.1011C165.442 48.3597 166.473 49.3894 167.732 49.3894C168.992 49.3894 170.023 48.3597 170.023 47.1011C170.023 46.4146 170.023 30.4728 170.023 30.3584Z" fill="#101010"/>
<path d="M135.972 17.6963C135.972 16.4377 134.942 15.408 133.682 15.408C132.422 15.408 131.391 16.4377 131.391 17.6963V27.8792C129.826 26.3155 127.88 25.5528 125.551 25.5528C119.52 25.5528 114.633 31.0066 114.633 37.7189C114.633 44.4313 119.52 49.8851 125.551 49.8851C127.88 49.8851 129.865 49.0842 131.43 47.5205C131.62 48.5884 132.575 49.3893 133.682 49.3893C134.942 49.3893 135.972 48.3596 135.972 47.101V17.6963ZM125.589 45.3466C122.077 45.3466 119.252 41.9523 119.252 37.7189C119.252 33.5237 122.077 30.0912 125.589 30.0912C129.101 30.0912 131.926 33.4856 131.926 37.7189C131.926 41.9523 129.063 45.3466 125.589 45.3466Z" fill="#101010"/>
<path d="M159.868 17.6961C159.868 16.4376 158.838 15.4078 157.578 15.4078C156.318 15.4078 155.287 16.4376 155.287 17.6961V27.8791C153.722 26.3154 151.776 25.5527 149.447 25.5527C143.416 25.5527 138.53 31.0064 138.53 37.7188C138.53 44.4312 143.416 49.885 149.447 49.885C151.776 49.885 153.761 49.0841 155.326 47.5204C155.517 48.5883 156.471 49.3892 157.578 49.3892C158.838 49.3892 159.868 48.3594 159.868 47.1009V17.6961ZM149.447 45.3465C145.935 45.3465 143.11 41.9522 143.11 37.7188C143.11 33.5236 145.935 30.0911 149.447 30.0911C152.959 30.0911 155.784 33.4854 155.784 37.7188C155.784 41.9522 152.959 45.3465 149.447 45.3465Z" fill="#101010"/>
<path d="M181.627 47.1392V30.1294H183.65C184.719 30.1294 185.673 29.3285 185.75 28.2225C185.826 27.0402 184.872 26.0486 183.727 26.0486H181.627V22.845C181.627 21.6246 180.711 20.5567 179.489 20.4804C178.153 20.4041 177.046 21.4339 177.046 22.7687V26.0868H175.138C174.069 26.0868 173.115 26.8877 173.038 27.9937C172.962 29.176 173.916 30.1676 175.061 30.1676H177.008V47.1773C177.008 48.4359 178.039 49.4656 179.299 49.4656C180.635 49.3893 181.627 48.3977 181.627 47.1392Z" fill="#101010"/>
<path d="M31.989 63.92C49.656 63.92 63.978 49.611 63.978 31.96C63.978 14.309 49.656 0 31.989 0C14.322 0 0 14.309 0 31.96C0 49.611 14.322 63.92 31.989 63.92Z" fill="#101010"/>
<path d="M53.3277 31.9598C53.3277 29.3664 51.2282 27.3069 48.6706 27.3069C47.4109 27.3069 46.2657 27.8027 45.4259 28.6036C42.2194 26.3153 37.8295 24.8279 32.9434 24.6372L35.081 14.6449L42.0285 16.1323C42.1049 17.8867 43.5555 19.2978 45.3496 19.2978C47.1819 19.2978 48.6706 17.8104 48.6706 15.9798C48.6706 14.1491 47.1819 12.6617 45.3496 12.6617C44.0517 12.6617 42.9065 13.4245 42.3721 14.5305L34.623 12.8906C34.3939 12.8524 34.1649 12.8906 34.0122 13.005C33.8213 13.1194 33.7068 13.3101 33.6686 13.5389L31.3019 24.6753C26.3394 24.8279 21.8732 26.3153 18.6285 28.6417C17.7887 27.8408 16.6435 27.345 15.3838 27.345C12.788 27.345 10.7267 29.4426 10.7267 31.9979C10.7267 33.9048 11.8718 35.5067 13.4751 36.2313C13.3988 36.689 13.3606 37.1466 13.3606 37.6424C13.3606 44.8124 21.7205 50.6476 32.0272 50.6476C42.3339 50.6476 50.6938 44.8506 50.6938 37.6424C50.6938 37.1848 50.6556 36.689 50.5793 36.2313C52.1826 35.5067 53.3277 33.8667 53.3277 31.9598ZM21.3388 35.2778C21.3388 33.4472 22.8275 31.9598 24.6598 31.9598C26.4921 31.9598 27.9809 33.4472 27.9809 35.2778C27.9809 37.1085 26.4921 38.5959 24.6598 38.5959C22.8275 38.634 21.3388 37.1085 21.3388 35.2778ZM39.929 44.0878C37.6386 46.3761 33.2869 46.5287 32.0272 46.5287C30.7293 46.5287 26.3776 46.338 24.1254 44.0878C23.7818 43.7446 23.7818 43.2106 24.1254 42.8674C24.4689 42.5241 25.0034 42.5241 25.3469 42.8674C26.7975 44.3166 29.8513 44.8124 32.0272 44.8124C34.2031 44.8124 37.2951 44.3166 38.7075 42.8674C39.051 42.5241 39.5855 42.5241 39.929 42.8674C40.2344 43.2106 40.2344 43.7446 39.929 44.0878ZM39.3182 38.634C37.4859 38.634 35.9972 37.1466 35.9972 35.316C35.9972 33.4853 37.4859 31.9979 39.3182 31.9979C41.1506 31.9979 42.6393 33.4853 42.6393 35.316C42.6393 37.1085 41.1506 38.634 39.3182 38.634Z" fill="white"/>
</svg>
